<?xml version="1.0" encoding="utf-8"?>
<!-- Generator: Adobe Illustrator 27.5.0, SVG Export Plug-In . SVG Version: 6.00 Build 0)  -->
<svg version="1.1" id="Layer_1" xmlns="http://www.w3.org/2000/svg" xmlns:xlink="http://www.w3.org/1999/xlink" x="0px" y="0px"
	 viewBox="0 0 2599 1733" style="enable-background:new 0 0 2599 1733;" xml:space="preserve">
<g>
	<rect style="fill:#FFFFFF;" width="2598.076" height="1732.051"/>
	<g>
		<g>
			<path style="fill:#F29746;" d="M2434.894,1572.785c-14.724,5.473-13.404,20.555-22.495,37.804
				c-13.337,25.305-4.068,40.118,9.145,39.329c13.214-0.788,18.833-17.914,32.019-22.136c0.041-0.013,0.082-0.026,0.123-0.039
				c0.04-0.015,0.081-0.03,0.121-0.045c13.011-4.735,27.939,5.364,38.869-2.103s9.188-24.854-16.85-36.695
				C2458.077,1580.829,2449.886,1568.096,2434.894,1572.785z"/>
			<path style="fill:#F29746;" d="M2395.267,1574.032c12.082,8.489,17.44,21.685,11.967,29.474
				c-5.473,7.789-19.703,7.222-31.785-1.267c-12.082-8.489-17.44-21.685-11.968-29.474
				C2368.954,1564.976,2383.185,1565.544,2395.267,1574.032z"/>
			<path style="fill:#F29746;" d="M2466.988,1549.508c-4.355,14.11-0.511,27.823,8.584,30.631s20-6.354,24.355-20.464
				c4.355-14.109,0.512-27.823-8.584-30.631C2482.247,1526.237,2471.342,1535.399,2466.988,1549.508z"/>
			<path style="fill:#F29746;" d="M2417.557,1534.659c7.543,13.624,6.54,28.609-2.243,33.472
				c-8.782,4.864-22.017-2.238-29.561-15.861c-7.543-13.623-6.539-28.609,2.243-33.472
				C2396.779,1513.934,2410.014,1521.036,2417.557,1534.659z"/>
			<path style="fill:#F29746;" d="M2425.257,1532.027c2.377,15.39,12.347,26.624,22.268,25.091
				c9.921-1.532,16.037-15.25,13.66-30.641c-2.377-15.39-12.346-26.624-22.268-25.091
				C2428.995,1502.918,2422.88,1516.637,2425.257,1532.027z"/>
		</g>
		<g>
			<path style="fill:#F29746;" d="M489.847,872.811c-15.597-1.87-21.323,12.145-37.299,23.323
				c-23.436,16.399-21.972,33.811-9.863,39.156c12.11,5.344,24.942-7.313,38.598-5.034c0.043,0.007,0.085,0.014,0.128,0.021
				c0.043,0.005,0.085,0.011,0.128,0.016c13.736,1.742,22.389,17.552,35.524,15.914s19.542-17.896,1.806-40.338
				C506.78,890.572,505.323,875.502,489.847,872.811z"/>
			<path style="fill:#F29746;" d="M454.04,855.79c6.86,13.076,5.586,27.262-2.844,31.683c-8.431,4.422-20.824-2.593-27.684-15.67
				c-6.859-13.076-5.586-27.262,2.844-31.684C434.787,835.698,447.181,842.714,454.04,855.79z"/>
			<path style="fill:#F29746;" d="M529.034,866.798c-10.327,10.554-13.185,24.506-6.381,31.164c6.803,6.658,20.691,3.5,31.019-7.053
				c10.328-10.554,13.185-24.506,6.382-31.164C553.25,853.087,539.362,856.245,529.034,866.798z"/>
			<path style="fill:#F29746;" d="M491.875,830.978c0.475,15.565-7.275,28.431-17.309,28.737
				c-10.035,0.306-18.554-12.064-19.029-27.629s7.275-28.431,17.309-28.737C482.881,803.044,491.401,815.413,491.875,830.978z"/>
			<path style="fill:#F29746;" d="M499.926,832.16c-4.928,14.772-1.202,29.322,8.32,32.499c9.523,3.177,21.238-6.223,26.166-20.995
				c4.927-14.772,1.202-29.323-8.32-32.499C516.568,807.989,504.854,817.388,499.926,832.16z"/>
		</g>
		<g>
			<path style="fill:#D9B184;" d="M1672.479,156.046c-14.62,5.746-13.019,20.801-21.787,38.216
				c-12.863,25.549-3.32,40.187,9.876,39.152c13.196-1.034,18.495-18.261,31.601-22.728c0.041-0.014,0.081-0.028,0.122-0.041
				c0.04-0.016,0.08-0.031,0.12-0.047c12.921-4.977,28.034,4.842,38.823-2.826c10.789-7.669,8.724-25.02-17.53-36.374
				C1695.808,163.658,1687.381,151.079,1672.479,156.046z"/>
			<path style="fill:#D9B184;" d="M1632.882,158.031c12.238,8.263,17.841,21.357,12.514,29.246
				c-5.327,7.89-19.565,7.587-31.804-0.675c-12.238-8.263-17.841-21.356-12.514-29.246
				C1606.405,149.466,1620.644,149.768,1632.882,158.031z"/>
			<path style="fill:#D9B184;" d="M1704.134,132.176c-4.091,14.188,0.007,27.828,9.153,30.465
				c9.147,2.638,19.878-6.725,23.97-20.914c4.092-14.188-0.007-27.828-9.153-30.465
				C1718.957,108.625,1708.225,117.988,1704.134,132.176z"/>
			<path style="fill:#D9B184;" d="M1654.436,118.25c7.795,13.48,7.071,28.483-1.62,33.508c-8.69,5.026-22.055-1.828-29.851-15.308
				c-7.796-13.48-7.071-28.483,1.62-33.508C1633.275,97.916,1646.64,104.769,1654.436,118.25z"/>
			<path style="fill:#D9B184;" d="M1662.085,115.474c2.663,15.343,12.84,26.389,22.731,24.672
				c9.891-1.716,15.75-15.546,13.087-30.889c-2.663-15.343-12.84-26.389-22.731-24.673
				C1665.281,86.302,1659.422,100.131,1662.085,115.474z"/>
		</g>
		<g>
			<path style="fill:#F29746;" d="M1328.457,1560.873c-15.338-3.391-22.411,9.995-39.405,19.553
				c-24.931,14.023-25.181,31.495-13.653,38c11.527,6.505,25.538-4.833,38.906-1.226c0.042,0.011,0.083,0.022,0.125,0.034
				c0.042,0.009,0.084,0.019,0.126,0.028c13.498,3.08,20.56,19.662,33.792,19.32c13.232-0.343,21.201-15.894,5.751-39.967
				C1343.568,1580.207,1343.595,1565.067,1328.457,1560.873z"/>
			<path style="fill:#F29746;" d="M1294.492,1540.423c5.544,13.686,2.887,27.678-5.936,31.252
				c-8.823,3.574-20.47-4.622-26.015-18.309c-5.544-13.686-2.887-27.677,5.936-31.252
				C1277.3,1518.541,1288.947,1526.737,1294.492,1540.423z"/>
			<path style="fill:#F29746;" d="M1368.045,1558.73c-11.313,9.49-15.523,23.096-9.405,30.388
				c6.118,7.293,20.248,5.512,31.561-3.979c11.312-9.49,15.523-23.095,9.405-30.388
				C1393.488,1547.458,1379.358,1549.24,1368.045,1558.73z"/>
			<path style="fill:#F29746;" d="M1334.576,1519.44c-1.053,15.537-10.026,27.581-20.042,26.902
				c-10.016-0.679-17.282-13.824-16.228-29.361c1.053-15.537,10.027-27.581,20.042-26.902
				C1328.364,1490.757,1335.63,1503.903,1334.576,1519.44z"/>
			<path style="fill:#F29746;" d="M1342.472,1521.405c-6.352,14.218-4.071,29.063,5.095,33.158
				c9.165,4.095,21.746-4.111,28.098-18.329c6.352-14.218,4.071-29.063-5.095-33.158
				C1361.404,1498.98,1348.824,1507.187,1342.472,1521.405z"/>
		</g>
		<g>
			<path style="fill:#D9B184;" d="M2089.329,918.213c-13.067,8.718-8.308,23.09-13.18,41.969
				c-7.148,27.697,5.284,39.976,17.96,36.164c12.676-3.812,14.198-21.771,26.058-28.917c0.037-0.022,0.073-0.044,0.11-0.066
				c0.036-0.024,0.072-0.047,0.108-0.071c11.57-7.606,28.423-1.217,37.339-11.001c8.915-9.784,3.214-26.302-24.851-31.826
				C2113.742,920.7,2102.838,910.196,2089.329,918.213z"/>
			<path style="fill:#D9B184;" d="M2051.056,928.556c13.713,5.477,21.967,17.083,18.436,25.924
				c-3.531,8.84-17.51,11.567-31.223,6.09c-13.713-5.477-21.967-17.084-18.436-25.924
				C2023.365,925.806,2037.344,923.079,2051.056,928.556z"/>
			<path style="fill:#D9B184;" d="M2115.198,888.169c-0.988,14.733,5.912,27.193,15.41,27.829
				c9.498,0.636,17.998-10.791,18.985-25.524c0.988-14.733-5.912-27.193-15.41-27.829
				C2124.684,862.007,2116.185,873.435,2115.198,888.169z"/>
			<path style="fill:#D9B184;" d="M2063.676,885.107c10.48,11.519,12.955,26.333,5.53,33.089c-7.426,6.756-21.941,2.895-32.42-8.624
				c-10.479-11.519-12.955-26.333-5.529-33.089C2038.682,869.727,2053.197,873.588,2063.676,885.107z"/>
			<path style="fill:#D9B184;" d="M2070.561,880.771c5.859,14.428,18.149,23.063,27.45,19.286
				c9.302-3.777,12.093-18.535,6.234-32.963c-5.859-14.428-18.148-23.063-27.449-19.286
				C2067.494,851.585,2064.703,866.343,2070.561,880.771z"/>
		</g>
		<g>
			<path style="fill:#F29746;" d="M2053.001,1568.552c-13.918-7.284-24.246,3.787-43.147,8.568
				c-27.731,7.015-32.542,23.813-23.116,33.107c9.425,9.293,25.913,2.014,37.873,8.991c0.037,0.022,0.074,0.043,0.111,0.066
				c0.038,0.02,0.076,0.04,0.114,0.06c12.224,6.503,14.703,24.355,27.565,27.484c12.861,3.13,24.62-9.796,16.003-37.072
				C2062.53,1591.166,2066.515,1576.56,2053.001,1568.552z"/>
			<path style="fill:#F29746;" d="M2025.565,1539.932c1.772,14.66-4.452,27.47-13.903,28.612
				c-9.451,1.143-18.549-9.815-20.321-24.474s4.452-27.47,13.902-28.613C2014.694,1514.315,2023.792,1525.273,2025.565,1539.932z"/>
			<path style="fill:#F29746;" d="M2091.771,1576.837c-13.4,6.202-21.023,18.233-17.025,26.871
				c3.998,8.639,18.103,10.615,31.504,4.414c13.4-6.202,21.023-18.232,17.025-26.871S2105.172,1570.636,2091.771,1576.837z"/>
			<path style="fill:#F29746;" d="M2069.742,1530.162c-5.079,14.721-16.89,23.999-26.381,20.724
				c-9.49-3.275-13.065-17.863-7.985-32.583c5.079-14.721,16.89-23.999,26.381-20.724
				C2071.247,1500.853,2074.823,1515.442,2069.742,1530.162z"/>
			<path style="fill:#F29746;" d="M2076.85,1534.124c-9.849,12.062-11.53,26.987-3.754,33.337
				c7.776,6.35,22.064,1.719,31.913-10.343s11.53-26.988,3.754-33.337C2100.987,1517.431,2086.699,1522.062,2076.85,1534.124z"/>
		</g>
		<g>
			<path style="fill:#4E3628;" d="M130.099,1064.67c-10.94-11.273-24.213-3.99-43.662-5.363
				c-28.533-2.014-38.358,12.436-32.314,24.212s23.982,10.021,33.158,20.39c0.028,0.032,0.057,0.064,0.086,0.097
				c0.029,0.031,0.059,0.062,0.089,0.093c9.575,10.001,6.344,27.733,17.58,34.729c11.236,6.997,26.449-1.601,26.799-30.203
				C132.074,1089.13,140.429,1076.504,130.099,1064.67z"/>
			<path style="fill:#4E3628;" d="M112.996,1028.902c-2.904,14.478-12.824,24.698-22.157,22.826
				c-9.334-1.872-14.546-15.126-11.643-29.604c2.903-14.478,12.823-24.697,22.156-22.826
				C110.687,1001.171,115.899,1014.425,112.996,1028.902z"/>
			<path style="fill:#4E3628;" d="M164.331,1084.67c-14.668,1.697-25.672,10.739-24.578,20.195
				c1.094,9.456,13.872,15.746,28.54,14.049c14.668-1.697,25.672-10.739,24.578-20.195
				C191.777,1089.263,178.999,1082.973,164.331,1084.67z"/>
			<path style="fill:#4E3628;" d="M158.012,1033.446c-9.431,12.392-23.552,17.509-31.54,11.429
				c-7.989-6.08-6.82-21.054,2.611-33.446c9.431-12.392,23.552-17.509,31.541-11.429
				C168.612,1006.08,167.443,1021.054,158.012,1033.446z"/>
			<path style="fill:#4E3628;" d="M163.523,1039.433c-13.129,8.374-19.395,22.024-13.997,30.488
				c5.399,8.464,20.418,8.536,33.547,0.162c13.129-8.374,19.395-22.024,13.997-30.488
				C191.671,1031.13,176.652,1031.058,163.523,1039.433z"/>
		</g>
		<g>
			<path style="fill:#D9B184;" d="M2468.822,467.471c-15.539-2.305-21.654,11.545-37.935,22.273
				c-23.885,15.739-22.907,33.186-10.951,38.865c11.956,5.68,25.136-6.614,38.724-3.956c0.042,0.008,0.084,0.017,0.126,0.025
				c0.043,0.007,0.085,0.013,0.127,0.019c13.682,2.125,21.891,18.17,35.066,16.899c13.176-1.271,20.033-17.344,2.93-40.272
				C2485.253,485.697,2484.217,470.593,2468.822,467.471z"/>
			<path style="fill:#D9B184;" d="M2433.504,449.458c6.491,13.263,4.823,27.407-3.727,31.592
				c-8.55,4.185-20.744-3.174-27.236-16.436c-6.492-13.263-4.824-27.407,3.726-31.592
				C2414.819,428.837,2427.012,436.196,2433.504,449.458z"/>
			<path style="fill:#D9B184;" d="M2508.162,462.554c-10.618,10.262-13.864,24.129-7.248,30.974
				c6.615,6.845,20.585,4.076,31.204-6.185c10.618-10.262,13.863-24.129,7.248-30.974
				C2532.75,449.524,2518.78,452.293,2508.162,462.554z"/>
			<path style="fill:#D9B184;" d="M2472.017,425.712c0.04,15.572-8.065,28.217-18.104,28.243
				c-10.039,0.026-18.21-12.577-18.25-28.15c-0.04-15.572,8.065-28.217,18.104-28.243
				C2463.805,397.536,2471.976,410.139,2472.017,425.712z"/>
			<path style="fill:#D9B184;" d="M2480.031,427.117c-5.338,14.629-2.02,29.278,7.41,32.719c9.431,3.441,21.404-5.628,26.742-20.257
				c5.337-14.629,2.019-29.277-7.411-32.718C2497.341,403.419,2485.369,412.488,2480.031,427.117z"/>
		</g>
		<g>
			<path style="fill:#4E3628;" d="M2462.46,884.173c-10.823-11.386-24.171-4.242-43.604-5.817
				c-28.51-2.312-38.486,12.035-32.565,23.873c5.921,11.839,23.876,10.271,32.943,20.735c0.028,0.033,0.057,0.065,0.084,0.098
				c0.03,0.031,0.059,0.062,0.088,0.094c9.47,10.101,6.054,27.797,17.218,34.911c11.163,7.113,26.464-1.325,27.113-29.922
				C2464.179,908.652,2472.666,896.114,2462.46,884.173z"/>
			<path style="fill:#4E3628;" d="M2445.73,848.23c-3.054,14.447-13.08,24.562-22.393,22.593
				c-9.314-1.969-14.388-15.276-11.333-29.723c3.054-14.447,13.08-24.563,22.393-22.594
				C2443.711,820.475,2448.785,833.783,2445.73,848.23z"/>
			<path style="fill:#4E3628;" d="M2496.481,904.529c-14.685,1.544-25.783,10.47-24.788,19.938s13.707,15.89,28.392,14.346
				c14.685-1.544,25.783-10.47,24.788-19.938C2523.878,909.408,2511.166,902.985,2496.481,904.529z"/>
			
				<ellipse transform="matrix(0.6139 -0.7894 0.7894 0.6139 291.434 2279.9829)" style="fill:#4E3628;" cx="2476.348" cy="842.083" rx="28.196" ry="18.177"/>
			<path style="fill:#4E3628;" d="M2496.145,859.286c-13.215,8.237-19.624,21.821-14.314,30.34
				c5.311,8.52,20.328,8.749,33.544,0.511c13.215-8.237,19.623-21.821,14.313-30.34
				C2524.378,851.278,2509.36,851.049,2496.145,859.286z"/>
		</g>
		<g>
			<path style="fill:#F29746;" d="M1352.36,886.197c-13.956-7.211-24.225,3.913-43.102,8.794
				c-27.694,7.159-32.416,23.983-22.943,33.227c9.473,9.244,25.923,1.879,37.919,8.794c0.037,0.021,0.075,0.043,0.111,0.065
				c0.038,0.02,0.076,0.04,0.114,0.06c12.258,6.439,14.83,24.278,27.707,27.34c12.878,3.062,24.569-9.925,15.81-37.155
				C1362.007,908.76,1365.916,894.133,1352.36,886.197z"/>
			<path style="fill:#F29746;" d="M1324.775,857.72c1.849,14.65-4.308,27.493-13.753,28.685s-18.599-9.718-20.448-24.368
				c-1.849-14.65,4.309-27.493,13.753-28.685C1313.771,832.16,1322.927,843.07,1324.775,857.72z"/>
			<path style="fill:#F29746;" d="M1391.174,894.279c-13.369,6.271-20.928,18.342-16.885,26.96
				c4.043,8.618,18.158,10.521,31.526,4.249c13.369-6.271,20.928-18.342,16.885-26.96
				C1418.656,889.91,1404.542,888.007,1391.174,894.279z"/>
			<path style="fill:#F29746;" d="M1368.901,847.719c-5.003,14.747-16.765,24.087-26.272,20.862
				c-9.506-3.225-13.158-17.794-8.155-32.541c5.003-14.747,16.765-24.087,26.272-20.862
				C1370.252,818.404,1373.903,832.973,1368.901,847.719z"/>
			<path style="fill:#F29746;" d="M1376.029,851.644c-9.786,12.113-11.389,27.047-3.58,33.356
				c7.809,6.309,22.073,1.603,31.859-10.51s11.389-27.047,3.58-33.356C1400.078,834.826,1385.815,839.531,1376.029,851.644z"/>
		</g>
		<g>
			<path style="fill:#F29746;" d="M870.257,180.217c-13.726,7.639-10.137,22.348-16.51,40.774
				c-9.35,27.033,2.055,40.271,14.996,37.491c12.941-2.781,15.902-20.56,28.297-26.73c0.038-0.019,0.077-0.038,0.115-0.057
				c0.038-0.021,0.075-0.042,0.113-0.062c12.143-6.652,28.429,1.07,38.102-7.965c9.672-9.035,5.318-25.958-22.214-33.72
				C894.391,184.658,884.367,173.312,870.257,180.217z"/>
			<path style="fill:#F29746;" d="M831.277,187.452c13.229,6.561,20.523,18.793,16.293,27.321
				c-4.23,8.528-18.383,10.122-31.611,3.561c-13.229-6.561-20.523-18.794-16.293-27.322
				C803.896,182.484,818.049,180.891,831.277,187.452z"/>
			<path style="fill:#F29746;" d="M898.456,152.349c-2.168,14.606,3.708,27.58,13.124,28.978c9.416,1.398,18.807-9.31,20.975-23.916
				c2.167-14.606-3.708-27.58-13.125-28.978C910.015,127.035,900.624,137.743,898.456,152.349z"/>
			<path style="fill:#F29746;" d="M847.347,145.157c9.52,12.324,10.797,27.289,2.852,33.426
				c-7.945,6.137-22.102,1.122-31.622-11.202c-9.52-12.323-10.797-27.289-2.852-33.426
				C823.669,127.818,837.827,132.833,847.347,145.157z"/>
			<path style="fill:#F29746;" d="M854.559,141.389c4.68,14.852,16.236,24.447,25.811,21.429
				c9.574-3.017,13.543-17.503,8.862-32.356c-4.68-14.852-16.236-24.446-25.811-21.429
				C853.847,112.05,849.879,126.537,854.559,141.389z"/>
		</g>
		<g>
			<path style="fill:#4E3628;" d="M1147.775,1215.69c-15.323,3.462-16.024,18.585-27.331,34.468
				c-16.59,23.302-9.378,39.218,3.823,40.197c13.2,0.979,21.051-15.245,34.683-17.672c0.043-0.007,0.085-0.015,0.127-0.022
				c0.042-0.009,0.084-0.019,0.126-0.028c13.526-2.96,26.975,9.039,38.802,3.095c11.827-5.943,12.418-23.407-11.81-38.613
				C1169.68,1226.753,1163.259,1213.041,1147.775,1215.69z"/>
			<path style="fill:#4E3628;" d="M1108.336,1211.646c10.843,10.024,14.395,23.816,7.933,30.806
				c-6.461,6.99-20.49,4.532-31.333-5.492c-10.843-10.023-14.395-23.815-7.933-30.806
				C1083.464,1199.164,1097.493,1201.623,1108.336,1211.646z"/>
			<path style="fill:#4E3628;" d="M1182.684,1196.898c-6.196,13.404-4.215,27.507,4.426,31.502
				c8.64,3.995,20.669-3.632,26.864-17.036c6.196-13.403,4.214-27.507-4.426-31.502
				C1200.909,1175.868,1188.881,1183.495,1182.684,1196.898z"/>
			<path style="fill:#4E3628;" d="M1135.674,1175.595c5.661,14.506,2.668,29.225-6.684,32.875
				c-9.352,3.649-21.523-5.152-27.184-19.659c-5.661-14.507-2.668-29.226,6.684-32.875
				C1117.843,1152.286,1130.013,1161.088,1135.674,1175.595z"/>
			<path style="fill:#4E3628;" d="M1143.656,1174.011c0.305,15.569,8.688,28.032,18.725,27.835
				c10.037-0.197,17.927-12.977,17.622-28.546c-0.305-15.569-8.688-28.031-18.726-27.835
				C1151.24,1145.661,1143.351,1158.442,1143.656,1174.011z"/>
		</g>
		<path style="fill:#D9B184;" d="M659.811,512.106c-5.959-4.204-13.019-4.921-18.468-4.626c-4.622,0.251-8.702-2.933-9.583-7.478
			c-1.038-5.357-3.449-12.031-8.974-16.788c-13.446-11.573-30.636-8.957-40.087,1.753c-9.341,10.584-9.338,26.706-8.338,38.442
			c1.146,13.448,5.31,29.44,9.079,40.293c1.185,3.412,4.261,5.813,7.859,6.133c11.444,1.018,27.967,1.17,41.291-0.987
			c11.628-1.883,27.269-5.799,35.264-17.431C675.945,539.647,674.302,522.334,659.811,512.106z"/>
		<path style="fill:#F29746;" d="M485.195,136.17c-6.451,3.403-10.292,9.369-12.503,14.359c-1.874,4.233-6.563,6.424-11.012,5.146
			c-5.245-1.506-12.286-2.386-19.033,0.38c-16.414,6.73-21.882,23.236-16.628,36.518c5.193,13.126,19.561,20.439,30.474,24.874
			c12.505,5.081,28.645,8.626,40.027,10.191c3.578,0.493,7.113-1.159,9.031-4.22c6.1-9.736,13.733-24.391,17.855-37.243
			c3.598-11.216,7.206-26.932,0.468-39.334C517.057,134.29,500.884,127.897,485.195,136.17z"/>
		<path style="fill:#F29746;" d="M1731.743,1547.441c-6.491-3.325-13.582-3.043-18.935-1.984c-4.541,0.898-9.028-1.681-10.539-6.057
			c-1.781-5.158-5.105-11.427-11.245-15.36c-14.939-9.568-31.591-4.561-39.443,7.37c-7.761,11.791-5.491,27.753-2.852,39.233
			c3.026,13.153,9.396,28.401,14.654,38.617c1.653,3.212,5.035,5.156,8.643,4.968c11.472-0.6,27.853-2.772,40.742-6.782
			c11.247-3.498,26.183-9.574,32.464-22.215C1751.588,1572.441,1747.528,1555.53,1731.743,1547.441z"/>
		<path style="fill:#D9B184;" d="M2221.581,1211.312c-6.728,2.816-11.084,8.417-13.729,13.191
			c-2.243,4.049-7.107,5.815-11.426,4.147c-5.091-1.966-12.026-3.468-18.991-1.313c-16.947,5.245-23.861,21.2-19.808,34.896
			c4.006,13.535,17.667,22.096,28.143,27.484c12.003,6.172,27.764,11.138,38.962,13.709c3.521,0.808,7.188-0.523,9.371-3.401
			c6.941-9.155,15.846-23.074,21.095-35.509c4.582-10.851,9.571-26.184,3.963-39.137
			C2253.485,1212.271,2237.944,1204.466,2221.581,1211.312z"/>
		<path style="fill:#4E3628;" d="M198.883,1541.829c-4.966-5.341-11.728-7.495-17.121-8.327c-4.575-0.706-7.912-4.661-7.839-9.29
			c0.086-5.457-0.9-12.483-5.329-18.276c-10.776-14.092-28.137-15.068-39.59-6.534c-11.319,8.435-14.633,24.213-16.07,35.904
			c-1.645,13.396-0.861,29.903,0.594,41.3c0.458,3.583,2.973,6.565,6.429,7.619c10.989,3.351,27.127,6.9,40.61,7.53
			c11.766,0.55,27.879-0.064,38.097-9.802C209.004,1572.1,210.959,1554.82,198.883,1541.829z"/>
		<path style="fill:#F29746;" d="M1029.444,488.336c-5.456,4.84-7.767,11.549-8.725,16.922c-0.813,4.557-4.845,7.801-9.471,7.62
			c-5.452-0.214-12.501,0.607-18.395,4.9c-14.34,10.444-15.722,27.777-7.457,39.427c8.168,11.513,23.864,15.196,35.519,16.905
			c13.354,1.958,29.874,1.559,41.302,0.371c3.593-0.374,6.632-2.819,7.766-6.249c3.607-10.908,7.532-26.959,8.478-40.423
			c0.825-11.75,0.588-27.873-8.909-38.316C1059.943,478.925,1042.713,476.565,1029.444,488.336z"/>
		<path style="fill:#D9B184;" d="M2120.209,151.732c-6.323-3.637-13.418-3.698-18.817-2.901c-4.58,0.676-8.936-2.118-10.233-6.561
			c-1.528-5.239-4.545-11.661-10.486-15.888c-14.457-10.282-31.332-6.089-39.755,5.447c-8.323,11.401-6.832,27.454-4.752,39.048
			c2.383,13.285,8.007,28.824,12.763,39.283c1.495,3.288,4.779,5.395,8.391,5.381c11.488-0.043,27.955-1.418,41.022-4.797
			c11.404-2.948,26.617-8.292,33.504-20.613C2138.816,177.665,2135.583,160.577,2120.209,151.732z"/>
		<path style="fill:#D9B184;" d="M953.374,1525.828c-7.221,1.025-12.851,5.344-16.616,9.295c-3.193,3.352-8.346,3.831-12.103,1.127
			c-4.429-3.188-10.759-6.394-18.043-6.068c-17.722,0.794-28.442,14.485-27.98,28.76c0.457,14.109,11.513,25.843,20.288,33.702
			c10.055,9.004,24.051,17.79,34.236,23.106c3.202,1.671,7.087,1.31,9.926-0.924c9.028-7.104,21.16-18.323,29.38-29.029
			c7.174-9.343,15.875-22.918,13.72-36.867C984.001,1534.815,970.935,1523.338,953.374,1525.828z"/>
		<path style="fill:#F29746;" d="M801.371,1172.57c-6.954-2.2-13.898-0.742-19.002,1.191c-4.328,1.64-9.182-0.157-11.399-4.221
			c-2.614-4.791-6.934-10.419-13.642-13.277c-16.321-6.952-31.909,0.754-37.669,13.824c-5.692,12.917-0.802,28.279,3.71,39.161
			c5.17,12.468,13.986,26.444,20.869,35.644c2.164,2.892,5.822,4.247,9.348,3.462c11.214-2.499,27.005-7.364,39.048-13.459
			c10.509-5.319,24.227-13.794,28.32-27.303C825.095,1193.923,818.281,1177.923,801.371,1172.57z"/>
		<path style="fill:#F29746;" d="M1774.036,824.299c-6.529-3.251-13.615-2.887-18.957-1.768c-4.53,0.949-9.046-1.578-10.607-5.937
			c-1.84-5.138-5.235-11.368-11.419-15.231c-15.047-9.398-31.64-4.201-39.357,7.818c-7.626,11.879-5.175,27.813-2.405,39.263
			c3.175,13.118,9.719,28.293,15.092,38.448c1.69,3.192,5.094,5.098,8.699,4.868c11.465-0.731,27.82-3.089,40.662-7.245
			c11.207-3.626,26.072-9.871,32.209-22.583C1794.164,849.071,1789.912,832.208,1774.036,824.299z"/>
		<path style="fill:#4E3628;" d="M1706.914,472.444c-6.173-3.883-13.261-4.225-18.688-3.642c-4.603,0.495-8.845-2.468-9.965-6.96
			c-1.321-5.295-4.081-11.831-9.851-16.289c-14.039-10.844-31.067-7.322-39.938,3.873c-8.767,11.064-7.91,27.163-6.29,38.83
			c1.857,13.369,6.863,29.118,11.201,39.756c1.364,3.345,4.562,5.579,8.172,5.708c11.481,0.411,27.989-0.313,41.18-3.174
			c11.511-2.496,26.923-7.235,34.291-19.274C1724.484,499.091,1721.927,481.89,1706.914,472.444z"/>
		<path style="fill:#D9B184;" d="M2210.249,559.306c-4.941,5.365-6.565,12.272-6.978,17.714c-0.35,4.616-4.035,8.249-8.656,8.534
			c-5.447,0.336-12.376,1.863-17.809,6.726c-13.216,11.834-12.847,29.218-3.452,39.977c9.286,10.632,25.272,12.717,37.04,13.244
			c13.484,0.604,29.88-1.455,41.13-3.787c3.537-0.734,6.315-3.472,7.098-6.999c2.492-11.215,4.781-27.58,4.366-41.071
			c-0.361-11.773-2.22-27.79-12.719-37.224C2239.646,546.873,2222.266,546.26,2210.249,559.306z"/>
		<path style="fill:#F29746;" d="M1912.088,1186.479l-4.71,25.751c-0.261,1.425,0.025,2.895,0.802,4.118l14.03,22.101
			c2.249,3.544,0.069,8.226-4.092,8.783l-25.947,3.477c-1.436,0.192-2.745,0.92-3.668,2.035l-16.684,20.173
			c-2.675,3.235-7.802,2.607-9.618-1.177l-11.325-23.602c-0.627-1.306-1.723-2.327-3.07-2.86l-24.341-9.634
			c-3.903-1.544-4.89-6.615-1.852-9.511l18.947-18.064c1.048-0.999,1.681-2.357,1.772-3.803l1.64-26.127
			c0.263-4.189,4.78-6.695,8.473-4.701l23.035,12.438c1.274,0.688,2.761,0.87,4.164,0.51l25.355-6.514
			C1909.065,1178.828,1912.844,1182.35,1912.088,1186.479z"/>
		<path style="fill:#D9B184;" d="M1402.073,485.386l2.177,26.087c0.12,1.443,0.781,2.788,1.849,3.765l19.315,17.671
			c3.097,2.833,2.214,7.922-1.656,9.547l-24.138,10.132c-1.336,0.561-2.41,1.605-3.01,2.923l-10.837,23.829
			c-1.738,3.821-6.851,4.554-9.592,1.375l-17.096-19.825c-0.945-1.097-2.27-1.796-3.71-1.959l-26.012-2.943
			c-4.171-0.471-6.448-5.108-4.272-8.698l13.573-22.385c0.75-1.238,1.007-2.714,0.717-4.134l-5.239-25.649
			c-0.84-4.112,2.866-7.711,6.952-6.75l25.483,5.991c1.41,0.332,2.893,0.119,4.153-0.595l22.775-12.909
			C1397.157,478.791,1401.724,481.203,1402.073,485.386z"/>
		<path style="fill:#4E3628;" d="M2423.552,86.849l21.805,14.486c1.207,0.802,2.67,1.119,4.101,0.888l25.843-4.176
			c4.144-0.67,7.586,3.182,6.457,7.225l-7.038,25.215c-0.389,1.395-0.238,2.885,0.423,4.173l11.957,23.288
			c1.917,3.734-0.681,8.198-4.875,8.374l-26.155,1.098c-1.447,0.061-2.818,0.665-3.839,1.692l-18.453,18.569
			c-2.959,2.977-8.008,1.885-9.471-2.05l-9.127-24.536c-0.504-1.357-1.503-2.475-2.795-3.128l-23.362-11.812
			c-3.746-1.894-4.267-7.033-0.977-9.641l20.515-16.262c1.135-0.9,1.888-2.195,2.111-3.625l4.014-25.869
			C2415.329,86.61,2420.055,84.526,2423.552,86.849z"/>
		<path style="fill:#D9B184;" d="M388.912,1241.521l25.207,7.064c1.394,0.391,2.885,0.241,4.174-0.419l23.3-11.934
			c3.736-1.914,8.197,0.69,8.369,4.884l1.072,26.156c0.06,1.447,0.662,2.818,1.688,3.84l18.55,18.472
			c2.974,2.962,1.877,8.009-2.059,9.469l-24.545,9.102c-1.358,0.503-2.476,1.5-3.131,2.792l-11.835,23.35
			c-1.898,3.744-7.038,4.26-9.642,0.968l-16.242-20.531c-0.898-1.135-2.192-1.891-3.623-2.114l-25.864-4.041
			c-4.148-0.648-6.226-5.377-3.9-8.871l14.507-21.791c0.802-1.206,1.12-2.67,0.891-4.099l-4.15-25.848
			C381.014,1243.827,384.869,1240.388,388.912,1241.521z"/>
		<path style="fill:#F29746;" d="M2517.725,1193.878l8.414,24.789c0.466,1.371,1.431,2.517,2.705,3.207l23.011,12.482
			c3.69,2.001,4.062,7.153,0.699,9.665l-20.976,15.663c-1.16,0.866-1.951,2.139-2.214,3.563l-4.761,25.742
			c-0.763,4.127-5.548,6.074-8.976,3.651l-21.377-15.11c-1.183-0.836-2.637-1.194-4.073-1.005l-25.953,3.427
			c-4.162,0.55-7.491-3.399-6.246-7.408l7.763-25c0.429-1.383,0.322-2.877-0.302-4.184l-11.28-23.624
			c-1.808-3.788,0.918-8.175,5.116-8.229l26.176-0.342c1.448-0.019,2.835-0.583,3.885-1.58l18.982-18.028
			C2511.361,1188.666,2516.376,1189.903,2517.725,1193.878z"/>
		<path style="fill:#D9B184;" d="M173.794,554.33l15.216,21.302c0.842,1.179,2.097,1.996,3.515,2.29l25.636,5.303
			c4.111,0.85,5.955,5.675,3.46,9.051l-15.557,21.055c-0.861,1.165-1.25,2.611-1.091,4.05l2.879,26.02
			c0.462,4.172-3.557,7.418-7.538,6.089l-24.832-8.29c-1.374-0.459-2.87-0.382-4.189,0.214l-23.857,10.778
			c-3.826,1.728-8.154-1.09-8.12-5.288l0.211-26.177c0.012-1.448-0.523-2.847-1.498-3.918l-17.623-19.358
			c-2.826-3.105-1.482-8.092,2.52-9.357l24.961-7.889c1.381-0.437,2.546-1.378,3.264-2.636l12.965-22.742
			C166.196,551.178,171.354,550.914,173.794,554.33z"/>
		<path style="fill:#D9B184;" d="M943.346,814.292l3.329,25.966c0.185,1.437,0.904,2.751,2.014,3.68l20.078,16.799
			c3.219,2.694,2.563,7.816-1.232,9.611l-23.666,11.19c-1.309,0.619-2.337,1.709-2.878,3.053l-9.772,24.286
			c-1.567,3.894-6.643,4.853-9.522,1.798l-17.956-19.05c-0.994-1.054-2.348-1.694-3.793-1.793l-26.117-1.789
			c-4.188-0.287-6.668-4.818-4.652-8.5l12.568-22.964c0.696-1.27,0.886-2.756,0.534-4.161l-6.369-25.391
			c-1.021-4.071,2.522-7.83,6.646-7.052l25.724,4.858c1.423,0.268,2.895-0.01,4.122-0.779l22.181-13.904
			C938.142,807.921,942.812,810.128,943.346,814.292z"/>
		<path style="fill:#4E3628;" d="M1265.172,115.332l17.166,19.765c0.95,1.093,2.277,1.788,3.717,1.945l26.022,2.85
			c4.173,0.457,6.467,5.085,4.303,8.682l-13.492,22.434c-0.746,1.241-0.997,2.718-0.703,4.136l5.331,25.63
			c0.855,4.11-2.838,7.721-6.928,6.775l-25.504-5.9c-1.411-0.327-2.893-0.108-4.151,0.61l-22.728,12.99
			c-3.645,2.083-8.221-0.313-8.584-4.495l-2.27-26.08c-0.126-1.443-0.791-2.785-1.863-3.759l-19.377-17.601
			c-3.107-2.822-2.242-7.915,1.622-9.553l24.102-10.219c1.333-0.565,2.405-1.613,2.999-2.933l10.752-23.869
			C1257.309,112.913,1262.419,112.162,1265.172,115.332z"/>
		<path style="fill:#F29746;" d="M1954.77,455.724l19.362,17.619c1.071,0.974,2.471,1.509,3.919,1.497l26.177-0.216
			c4.197-0.035,7.017,4.293,5.29,8.119l-10.773,23.858c-0.596,1.32-0.672,2.816-0.213,4.19l8.295,24.829
			c1.33,3.981-1.914,8.001-6.086,7.54l-26.021-2.873c-1.44-0.159-2.886,0.231-4.05,1.091l-21.051,15.562
			c-3.376,2.495-8.2,0.651-9.052-3.459l-5.308-25.635c-0.293-1.418-1.111-2.673-2.29-3.515l-21.306-15.212
			c-3.416-2.439-3.153-7.598,0.493-9.677l22.74-12.97c1.258-0.717,2.199-1.884,2.635-3.264l7.883-24.963
			C1946.678,454.243,1951.665,452.898,1954.77,455.724z"/>
		<path style="fill:#F29746;" d="M1535.011,1166.55l21.842,14.43c1.208,0.798,2.673,1.111,4.102,0.877l25.833-4.241
			c4.142-0.68,7.594,3.162,6.476,7.208l-6.974,25.233c-0.385,1.396-0.231,2.886,0.434,4.173l12.016,23.258
			c1.927,3.729-0.661,8.2-4.855,8.387l-26.152,1.164c-1.447,0.064-2.816,0.672-3.835,1.702l-18.406,18.615
			c-2.951,2.985-8.002,1.906-9.476-2.025l-9.189-24.513c-0.509-1.356-1.51-2.471-2.804-3.121l-23.392-11.753
			c-3.751-1.885-4.285-7.022-1.003-9.638l20.474-16.314c1.132-0.902,1.883-2.199,2.101-3.631l3.949-25.879
			C1526.788,1166.332,1531.509,1164.236,1535.011,1166.55z"/>
		<path style="fill:#F29746;" d="M167.707,156.367l0.049,26.179c0.003,1.448,0.552,2.842,1.537,3.903l17.814,19.182
			c2.857,3.076,1.563,8.076-2.427,9.381l-24.882,8.137c-1.376,0.45-2.533,1.402-3.237,2.668l-12.738,22.87
			c-2.042,3.667-7.198,3.982-9.672,0.591l-15.427-21.15c-0.853-1.17-2.117-1.975-3.538-2.254l-25.687-5.048
			c-4.119-0.809-6.012-5.615-3.551-9.016l15.347-21.208c0.849-1.173,1.224-2.623,1.051-4.061l-3.138-25.99
			c-0.503-4.167,3.483-7.453,7.478-6.163l24.912,8.043c1.378,0.445,2.874,0.354,4.188-0.256l23.748-11.015
			C163.343,149.394,167.699,152.17,167.707,156.367z"/>
		<path style="fill:#F29746;" d="M586.819,1534.832l7.569,25.061c0.419,1.386,1.345,2.564,2.594,3.297l22.574,13.254
			c3.62,2.125,3.818,7.287,0.371,9.683l-21.494,14.943c-1.19,0.827-2.023,2.072-2.334,3.486l-5.63,25.566
			c-0.903,4.1-5.751,5.883-9.094,3.345l-20.854-15.825c-1.154-0.876-2.595-1.283-4.036-1.143l-26.054,2.546
			c-4.178,0.408-7.372-3.651-5.992-7.616l8.606-24.723c0.476-1.368,0.419-2.865-0.161-4.192l-10.472-23.993
			c-1.679-3.847,1.194-8.139,5.391-8.052l26.173,0.545c1.448,0.03,2.854-0.487,3.937-1.448l19.582-17.374
			C580.634,1529.406,585.604,1530.814,586.819,1534.832z"/>
	</g>
</g>
</svg>
